<?xml version="1.0" standalone="no"?>
<!DOCTYPE svg PUBLIC "-//W3C//DTD SVG 20010904//EN"
 "http://www.w3.org/TR/2001/REC-SVG-20010904/DTD/svg10.dtd">
<svg version="1.0" xmlns="http://www.w3.org/2000/svg"
 width="22.000000pt" height="22.000000pt" viewBox="0 0 16.000000 16.000000"
 preserveAspectRatio="xMidYMid meet">

<g transform="translate(0.000000,16.000000) scale(0.100000,-0.100000)"
fill="#ffff" stroke="none">
<path d="M28 139 c-34 -20 -17 -29 52 -29 39 0 70 4 70 10 0 26 -87 40 -122
19z m52 -9 c0 -5 -4 -10 -10 -10 -5 0 -10 5 -10 10 0 6 5 10 10 10 6 0 10 -4
10 -10z"/>
<path d="M10 80 c0 -5 17 -10 38 -10 21 0 44 -6 51 -12 11 -10 14 -10 18 0 3
6 11 12 19 12 8 0 14 5 14 10 0 6 -30 10 -70 10 -40 0 -70 -4 -70 -10z"/>
<path d="M10 25 c0 -12 14 -15 70 -15 56 0 70 3 70 15 0 12 -14 15 -70 15 -56
0 -70 -3 -70 -15z"/>
</g>
</svg>
